<svg width="219" height="153" viewBox="0 0 219 153" fill="none" xmlns="http://www.w3.org/2000/svg">
<path d="M108.824 33.5H197C207.493 33.5 216 42.0066 216 52.5V133.5C216 143.993 207.493 152.5 197 152.5H19C8.50659 152.5 0 143.993 0 133.5V19C0 8.50659 8.50659 0 19 0H62.8735C69.203 0 75.117 3.15199 78.6461 8.40642L88.0709 22.4389C92.7145 29.3526 100.496 33.5 108.824 33.5Z" fill="url(#paint0_linear_1475_104)"/>
<path d="M69.2187 33.5H19C8.50659 33.5 0 42.0066 0 52.5V133.5C0 143.993 8.50659 152.5 19 152.5H197.43C207.754 152.5 216.189 144.256 216.425 133.935L218.771 31.4347C219.015 20.7739 210.439 12 199.776 12H117.869C114.494 12 111.18 12.8989 108.268 14.6043L81.8518 30.0733C78.0198 32.3172 73.6593 33.5 69.2187 33.5Z" fill="url(#paint1_linear_1475_104)"/>
<defs>
<linearGradient id="paint0_linear_1475_104" x1="150.5" y1="147" x2="23" y2="-16.5" gradientUnits="userSpaceOnUse">
<stop stop-color="#F1AA3D"/>
<stop offset="1" stop-color="#FFE3B9"/>
</linearGradient>
<linearGradient id="paint1_linear_1475_104" x1="108" y1="-3.58317e-07" x2="108" y2="152.5" gradientUnits="userSpaceOnUse">
<stop stop-color="#EA9A21"/>
<stop offset="1" stop-color="#FFCB72"/>
</linearGradient>
</defs>
</svg>
