<svg width="150" height="37" viewBox="0 0 150 37" fill="none" xmlns="http://www.w3.org/2000/svg">
<path d="M38.6964 14.6027V12.1003L46.9234 2.74805H38.6964V0.246094H50.2939V2.74805L42.0669 12.1003H50.2939V14.6027H38.6964Z" fill="white"/>
<path d="M58.4285 0.245972H55.9288V14.6026H58.4285V0.245972Z" fill="white"/>
<path d="M64.4734 14.6026V0.245972H67.178L73.233 10.0801V0.245972H75.7327V14.6026H73.0381L66.973 4.76841V14.6026H64.4734Z" fill="white"/>
<path d="M88.109 14.8692C87.1117 14.8692 86.1828 14.6741 85.322 14.2847C84.4684 13.8949 83.724 13.3583 83.0888 12.6746C82.4536 11.9842 81.9549 11.1911 81.5928 10.2954C81.2378 9.39305 81.0601 8.42929 81.0601 7.4037C81.0601 6.32345 81.2516 5.33233 81.6339 4.42994C82.0234 3.52756 82.5527 2.74459 83.2219 2.08146C83.8912 1.41834 84.6495 0.905772 85.4964 0.543304C86.3501 0.180836 87.2382 0 88.1603 0C89.1917 0 90.1919 0.242634 91.1619 0.727887C92.1387 1.20641 92.9991 1.94816 93.7439 2.95315L91.5102 4.15284C91.0527 3.59232 90.5267 3.17517 89.9327 2.90185C89.345 2.6218 88.7442 2.48135 88.1292 2.48135C87.5284 2.48135 86.9512 2.60458 86.3979 2.85057C85.8514 3.09656 85.3632 3.44556 84.933 3.89675C84.5096 4.3408 84.1747 4.86726 83.929 5.47572C83.6828 6.07745 83.5601 6.7372 83.5601 7.45498C83.5601 8.13198 83.6794 8.77114 83.9185 9.37245C84.1575 9.96745 84.4856 10.4905 84.9019 10.9417C85.3254 11.3858 85.814 11.7348 86.3673 11.9875C86.9206 12.2406 87.5146 12.3668 88.1498 12.3668C88.5733 12.3668 88.9866 12.3021 89.3895 12.1721C89.7995 12.0355 90.1819 11.8408 90.5368 11.5876C90.899 11.3345 91.2199 11.0271 91.5001 10.6646C91.7871 10.3022 92.0261 9.89219 92.2173 9.43427H89.6046V7.24979H95.1576C95.1849 8.29599 95.0211 9.27701 94.6656 10.1929C94.3107 11.1091 93.8086 11.919 93.1596 12.6233C92.5109 13.3276 91.756 13.8777 90.8956 14.2742C90.0348 14.6707 89.1059 14.8692 88.109 14.8692Z" fill="white"/>
<path d="M100.495 14.6026V0.245972H105.218C105.901 0.245972 106.519 0.385997 107.073 0.666468C107.633 0.939791 108.077 1.34305 108.404 1.87624C108.739 2.4027 108.906 3.05236 108.906 3.82481C108.906 4.28946 108.821 4.72721 108.651 5.13719C108.48 5.54087 108.261 5.88272 107.995 6.16277C107.728 6.43651 107.455 6.60387 107.175 6.66527C107.592 6.78174 107.957 6.97308 108.271 7.23968C108.585 7.49954 108.848 7.81029 109.06 8.17276C109.272 8.52807 109.429 8.90777 109.532 9.31103C109.634 9.71428 109.685 10.1175 109.685 10.5212C109.685 11.3483 109.511 12.0695 109.163 12.6847C108.821 13.2931 108.364 13.7649 107.79 14.1001C107.216 14.4348 106.577 14.6026 105.874 14.6026H100.495ZM101.602 13.5871H105.802C106.328 13.5871 106.806 13.4504 107.237 13.1771C107.667 12.8966 108.009 12.5173 108.261 12.0388C108.521 11.5535 108.651 11.0065 108.651 10.398C108.651 9.85095 108.521 9.33836 108.261 8.85983C108.009 8.38131 107.667 7.99488 107.237 7.70095C106.806 7.4003 106.328 7.24976 105.802 7.24976H101.602V13.5871ZM101.602 6.24477H105.146C105.877 6.24477 106.503 6.0362 107.021 5.61949C107.541 5.19563 107.8 4.5939 107.8 3.81472C107.8 2.9464 107.541 2.30387 107.021 1.88674C106.503 1.46961 105.877 1.26105 105.146 1.26105H101.602V6.24477Z" fill="white"/>
<path d="M116.252 0.245972H115.146V14.6026H116.252V0.245972Z" fill="white"/>
<path d="M121.887 14.6026V13.495L132.02 1.35357H121.887V0.245972H133.485V1.35357L123.352 13.495H133.485V14.6026H121.887Z" fill="white"/>
<path d="M138.403 14.6026V13.495L148.535 1.35357H138.403V0.245972H150V1.35357L139.868 13.495H150V14.6026H138.403Z" fill="white"/>
<path d="M15.5832 4.36902H0V19.9632H15.5832V4.36902Z" fill="white"/>
<path d="M32.4597 4.36902H16.8766V19.9632H32.4597V4.36902Z" fill="white"/>
<path d="M49.3403 36.859V21.2614H33.7606V36.859H49.3403Z" fill="white"/>
<path d="M32.46 36.8587V21.2611H16.8803V36.8587H32.46Z" fill="white"/>
</svg>
