<svg width="22" height="22" viewBox="0 0 22 22" fill="none" xmlns="http://www.w3.org/2000/svg">
<path d="M10.541 20.0411C15.7877 20.0411 20.041 15.7878 20.041 10.5411C20.041 5.29433 15.7877 1.04102 10.541 1.04102C5.29427 1.04102 1.04095 5.29433 1.04095 10.5411C1.04095 15.7878 5.29427 20.0411 10.541 20.0411Z" stroke="white" stroke-width="2.08195" stroke-miterlimit="1.5" stroke-linecap="round" stroke-linejoin="round"/>
<path d="M7.66315 8.38379C8.21543 8.38379 8.66315 7.93607 8.66315 7.38379C8.66315 6.8315 8.21543 6.38379 7.66315 6.38379C7.11086 6.38379 6.66315 6.8315 6.66315 7.38379C6.66315 7.93607 7.11086 8.38379 7.66315 8.38379Z" fill="white"/>
<path d="M13.4191 8.38379C13.9714 8.38379 14.4191 7.93607 14.4191 7.38379C14.4191 6.8315 13.9714 6.38379 13.4191 6.38379C12.8668 6.38379 12.4191 6.8315 12.4191 7.38379C12.4191 7.93607 12.8668 8.38379 13.4191 8.38379Z" fill="white"/>
<path d="M14.628 13.2295C13.7529 14.5567 12.2488 15.4334 10.5413 15.4334C8.8339 15.4334 7.32979 14.5567 6.45416 13.2295" stroke="white" stroke-width="2.08081" stroke-miterlimit="1.5" stroke-linecap="round" stroke-linejoin="round"/>
</svg>
