<svg width="25" height="25" viewBox="0 0 25 25" fill="none" xmlns="http://www.w3.org/2000/svg">
<path d="M24.6642 0H0V24.6642H24.6642V0Z" fill="#003454"/>
<path d="M15.1107 12.6518L10.9982 14.6856C10.8368 14.7735 10.2893 14.657 10.2893 14.4731V10.2973C10.2893 10.1114 10.8409 9.99497 11.0023 10.0869L14.9391 12.229C15.1046 12.3229 15.2782 12.5609 15.1107 12.6518ZM20.5041 10.1982C20.5041 8.21759 18.8984 6.61182 16.9177 6.61182H7.74683C5.76515 6.61182 4.1604 8.21759 4.1604 10.1982V14.466C4.1604 16.4467 5.76515 18.0524 7.74683 18.0524H16.9177C18.8984 18.0524 20.5041 16.4467 20.5041 14.466V10.1982Z" fill="white"/>
</svg>
