<svg width="48" height="46" viewBox="0 0 48 46" fill="none" xmlns="http://www.w3.org/2000/svg">
<path d="M11.25 15.2038H0V45.0753H11.25V15.2038Z" fill="#7BB248"/>
<path d="M46.9774 27.689C46.9774 26.6115 46.622 25.616 46.0231 24.8145C47.2195 23.9425 48 22.5268 48 20.9305C48 18.2871 45.8622 16.1366 43.2347 16.1366H32.4023L33.9098 10.898V8.388C33.9098 3.76289 30.1695 0 25.5721 0C24.4573 0 23.5505 0.912404 23.5505 2.03381V7.5984C22.7987 8.80884 18.6238 13.5218 14.0625 18.4595V43.2163L17.9548 44.6847C20.2683 45.5575 22.6942 46 25.165 46H40.1668C42.7943 46 44.932 43.8493 44.932 41.206C44.932 40.1289 44.5771 39.1336 43.9787 38.3323C45.1749 37.4604 45.9547 36.0437 45.9547 34.4474C45.9547 33.3699 45.5993 32.3744 45.0005 31.5729C46.1969 30.7012 46.9774 29.2855 46.9774 27.689Z" fill="#7BB248"/>
</svg>
