<svg width="630" height="228" viewBox="0 0 630 228" fill="none" xmlns="http://www.w3.org/2000/svg">
<rect width="630" height="228" rx="12" fill="#F85419"/>
<path d="M74.526 99.2217C72.3507 99.2217 70.5769 97.4479 70.5769 95.2726V75.7949H76.1994V94.3355H98.8564V99.2217H74.526ZM108.677 84.9648H127.451V89.2151H108.677V94.9714H131.3V99.2217H107.003C104.828 99.2217 103.054 97.4479 103.054 95.2726V79.744C103.054 77.5686 104.828 75.7949 107.003 75.7949H130.497V80.0452H108.677V84.9648ZM162.497 99.2217H156.373L153.863 93.3985H147.37V89.1482H152.022L148.106 80.1121L139.806 99.2217H133.682L143.856 75.7949H152.323L162.497 99.2217ZM190.737 75.7949C192.912 75.7949 194.686 77.5686 194.686 79.744V95.2726C194.686 97.4479 192.912 99.2217 190.737 99.2217H166.406V75.7949H190.737ZM172.029 94.9714H189.063V80.0452H172.029V94.9714ZM214.673 75.7949V99.2217H209.05V75.7949H214.673ZM249.532 75.7949V99.2217H243.542L226.875 82.5552V99.2217H221.286V75.7949H227.678L243.91 92.0598V75.7949H249.532ZM279.989 75.7949C282.164 75.7949 283.938 77.5686 283.938 79.744V95.2726C283.938 97.4479 282.164 99.2217 279.989 99.2217H255.658V75.7949H279.989ZM261.281 94.9714H278.315V80.0452H261.281V94.9714ZM296.221 75.7949V99.2217H290.598V75.7949H296.221ZM329.44 99.2217H323.316L320.806 93.3985H314.313V89.1482H318.965L315.049 80.1121L306.75 99.2217H300.625L310.799 75.7949H319.266L329.44 99.2217ZM97.3839 131.795V136.045H86.0386V155.222H80.4162V136.045H69.1044V131.795H97.3839ZM126.404 131.795C128.579 131.795 130.353 133.569 130.353 135.744V151.273C130.353 153.448 128.579 155.222 126.404 155.222H106.023C103.847 155.222 102.074 153.448 102.074 151.273V135.744C102.074 133.569 103.847 131.795 106.023 131.795H126.404ZM107.696 150.971H124.731V136.045H107.696V150.971ZM166.136 136.045H149.102V140.965H167.81C169.985 140.965 171.759 142.739 171.759 144.914V151.273C171.759 153.448 169.985 155.222 167.81 155.222H147.429C145.253 155.222 143.479 153.448 143.479 151.273V150.135L149.102 148.06V150.971H166.136V145.215H147.429C145.253 145.215 143.479 143.441 143.479 141.266V135.744C143.479 133.569 145.253 131.795 147.429 131.795H167.81C169.985 131.795 171.759 133.569 171.759 135.744V138.823H166.136V136.045ZM200.559 150.971V131.795H206.182V151.273C206.182 153.448 204.408 155.222 202.199 155.222H181.851C179.676 155.222 177.902 153.448 177.902 151.273V131.795H183.525V150.971H200.559ZM240.586 135.744V141.266C240.586 143.441 238.846 145.215 236.637 145.215H221.912V140.965H234.964V136.045H217.963V155.222H212.34V131.795H236.637C238.846 131.795 240.586 133.569 240.586 135.744ZM273.39 141.266C273.39 143.441 271.65 145.215 269.441 145.215H264.589L273.39 155.222H265.927L253.344 140.965H267.768V136.045H250.767V155.222H245.144V131.795H269.441C271.65 131.795 273.39 133.569 273.39 135.744V141.266ZM284.094 140.965H302.869V145.215H284.094V150.971H306.717V155.222H282.42C280.245 155.222 278.471 153.448 278.471 151.273V135.744C278.471 133.569 280.245 131.795 282.42 131.795H305.914V136.045H284.094V140.965ZM342.968 131.795L343.068 155.121L337.446 155.222L337.278 137.852L330.25 148.662L328.476 151.44H325.799L317.064 138.02L317.098 138.689L317.165 155.121L311.542 155.222L311.308 131.795H319.307L327.138 143.843L334.969 131.795H342.968ZM375.817 155.222H369.692L367.182 149.398H360.69V145.148H365.341L361.426 136.112L353.126 155.222H347.002L357.176 131.795H365.643L375.817 155.222ZM408.005 151.273C408.005 153.448 406.265 155.222 404.056 155.222H383.708C381.533 155.222 379.759 153.448 379.759 151.273V135.744C379.759 133.569 381.533 131.795 383.708 131.795H404.056C406.265 131.795 408.005 133.569 408.005 135.744V138.823H402.383V136.045H385.382V150.971H402.383V146.587H408.005V151.273ZM426.982 143.107L435.315 131.795H441.44L430.061 147.29L429.793 147.625V155.222H424.171V147.625L423.936 147.29L412.558 131.795H418.682L426.982 143.107Z" fill="white"/>
</svg>
