<svg width="324" height="113" viewBox="0 0 324 113" fill="none" xmlns="http://www.w3.org/2000/svg">
<path d="M162.37 45H135.22V49.08H146.08V67.49H151.48V49.08H162.37V45Z" fill="white"/>
<path d="M166.54 57.7197V54.3497H181.48V51.4297H165.39C163.88 51.4297 162.69 52.6497 162.69 54.1297V64.7897C162.69 66.2697 163.88 67.4897 165.39 67.4897H182.03V64.5697H166.55V60.6197H179.4V57.7297H166.55L166.54 57.7197Z" fill="white"/>
<path d="M204.8 64.7897V61.5797H200.95V64.5697H189.32V54.3497H200.95V56.2497H204.8V54.1297C204.8 52.6497 203.61 51.4297 202.1 51.4297H188.16C186.65 51.4297 185.46 52.6497 185.46 54.1297V64.7897C185.46 66.2697 186.65 67.4897 188.16 67.4897H202.1C203.61 67.4897 204.8 66.2697 204.8 64.7897Z" fill="white"/>
<path d="M213.6 51.4297H209.75V67.4897H213.6V60.6097H225.26V67.4897H229.12V51.4297H225.26V57.7197H213.6V51.4297Z" fill="white"/>
<path d="M253.4 64.7897V61.5797H249.54V64.5697H237.91V54.3497H249.54V56.2497H253.4V54.1297C253.4 52.6497 252.21 51.4297 250.7 51.4297H236.76C235.25 51.4297 234.06 52.6497 234.06 54.1297V64.7897C234.06 66.2697 235.25 67.4897 236.76 67.4897H250.7C252.21 67.4897 253.4 66.2697 253.4 64.7897Z" fill="white"/>
<path d="M262.21 64.5597V54.3397H273.87V64.5597H262.21ZM275.02 51.4297H261.05C259.57 51.4297 258.35 52.6497 258.35 54.1297V64.7897C258.35 66.2697 259.57 67.4897 261.05 67.4897H275.02C276.5 67.4897 277.72 66.2697 277.72 64.7897V54.1297C277.72 52.6497 276.5 51.4297 275.02 51.4297Z" fill="white"/>
<path d="M302.01 57.9099V54.1199C302.01 52.6399 300.82 51.4199 299.31 51.4199H282.67V67.4799H286.53V54.3399H298.16V57.7099H288.3L296.91 67.4799H302.02L296.01 60.6099H299.32C300.83 60.6099 302.02 59.4199 302.02 57.9099H302.01Z" fill="white"/>
<path d="M323.56 67.4897L316.59 51.4297H310.78L303.8 67.4897H308.01L313.7 54.3797L316.36 60.5797H313.18V63.4997H317.65L319.35 67.4897H323.56Z" fill="white"/>
<mask id="mask0_1766_1195" style="mask-type:luminance" maskUnits="userSpaceOnUse" x="0" y="0" width="113" height="113">
<path d="M56.23 0C25.2 0 0 25.2 0 56.23C0 87.26 25.2 112.46 56.23 112.46C87.26 112.46 112.46 87.26 112.46 56.23C112.46 25.2 87.26 0 56.23 0Z" fill="white"/>
</mask>
<g mask="url(#mask0_1766_1195)">
<path opacity="0.2" d="M112.46 0H0V112.46H112.46V0Z" fill="url(#paint0_radial_1766_1195)"/>
</g>
<path d="M56.75 108.93C56.78 108.73 56.65 108.51 56.35 108.49C55.93 108.51 55.81 108.93 56.06 109.16C56.17 109.26 56.28 109.27 56.34 109.27C56.69 109.25 56.75 108.94 56.75 108.93ZM53.08 108.72C53.02 108.48 52.74 108.24 52.43 108.26C52.09 108.31 52.15 108.68 52.45 108.91C52.77 109.16 53.12 109.1 53.09 108.8C53.09 108.78 53.09 108.75 53.08 108.73M60.4 108.66C60.57 108.41 60.48 108.18 60.21 108.19C59.77 108.2 59.44 108.72 59.64 108.93C59.81 109.11 60.22 108.93 60.4 108.66ZM49.04 107.94C48.88 107.7 48.51 107.44 48.21 107.46C47.9 107.51 48.06 107.87 48.41 108.12C48.75 108.37 49.16 108.44 49.13 108.16C49.13 108.08 49.07 107.99 49.04 107.94ZM64.53 107.79C64.78 107.52 64.76 107.28 64.49 107.29C64 107.32 63.45 107.94 63.65 108.14C63.79 108.28 64.25 108.09 64.53 107.79ZM44.28 106.53C44.21 106.45 43.96 106.17 43.53 106C43.37 105.95 43.32 105.95 43.24 105.96C42.9 106.07 43.39 106.6 43.87 106.84C43.95 106.88 44.01 106.9 44.06 106.92C44.38 107.02 44.51 106.92 44.38 106.68C44.37 106.65 44.33 106.59 44.28 106.54M69.41 106.27C69.72 105.99 69.84 105.68 69.54 105.67C69.54 105.67 69.52 105.67 69.51 105.67C68.97 105.72 68.24 106.46 68.43 106.65C68.56 106.78 69.05 106.58 69.41 106.26M38.57 104.2C38.31 103.92 37.79 103.53 37.43 103.56C37.08 103.67 37.65 104.28 38.18 104.57C38.6 104.8 38.88 104.79 38.79 104.53C38.77 104.48 38.72 104.36 38.57 104.2ZM75.28 103.81C75.66 103.45 75.74 103.15 75.46 103.14C75.45 103.14 75.43 103.14 75.42 103.14C74.82 103.22 73.96 104.1 74.17 104.3C74.31 104.43 74.87 104.18 75.28 103.8M32.1 100.85C31.82 100.51 31.5 100.31 31.39 100.24C31.15 100.1 31.01 100.06 30.87 100.07C30.54 100.17 31.02 100.85 31.74 101.28C32.33 101.61 32.38 101.38 32.33 101.22C32.31 101.16 32.26 101.04 32.1 100.86M81.84 100.29C82.27 99.8702 82.39 99.4802 82.09 99.4702C82.08 99.4702 82.06 99.4702 82.04 99.4702C81.37 99.5902 80.46 100.64 80.71 100.85C80.87 100.98 81.4 100.71 81.83 100.29M25.12 96.1202C24.79 95.6802 24.24 95.2202 23.92 95.2402C23.5 95.3502 24.26 96.3702 24.93 96.7402C25.26 96.9202 25.45 96.8702 25.39 96.6102C25.36 96.4802 25.26 96.3002 25.13 96.1202M88.85 95.3602C89.18 94.9602 89.42 94.4202 89.01 94.4602C88.3 94.6202 87.4 95.8702 87.71 96.0702C87.89 96.1902 88.44 95.8502 88.86 95.3602M18.34 90.0902C18.06 89.5902 17.52 89.0502 17.2 89.0702C16.89 89.1402 17.16 89.8402 17.73 90.4502C18.32 91.0302 18.54 90.9002 18.54 90.6802C18.54 90.6102 18.52 90.4202 18.33 90.0902M95.55 89.1502C95.87 88.7002 96.09 88.0702 95.66 88.1202C94.94 88.3402 94.18 89.7402 94.52 89.9202C94.72 90.0202 95.19 89.6702 95.55 89.1602M12.34 82.7202C12.11 82.1902 11.67 81.6302 11.37 81.6502C10.94 81.7302 11.47 83.1002 12.11 83.5302C12.44 83.7602 12.55 83.5202 12.48 83.1602C12.46 83.0302 12.4 82.8702 12.34 82.7202ZM101.38 81.6002C101.61 81.1302 101.76 80.4602 101.35 80.5302C100.64 80.8102 100.07 82.3502 100.47 82.5002C100.69 82.5802 101.11 82.1702 101.39 81.6102M7.74999 74.3102C7.58999 73.6602 7.20999 73.1002 6.94999 73.1102C6.51999 73.1702 6.87999 74.7002 7.41999 75.1302C7.69999 75.3502 7.86999 75.1202 7.79999 74.6002C7.78999 74.5202 7.76999 74.4002 7.73999 74.3102M105.71 73.0402C105.92 72.4402 105.92 71.7902 105.59 71.8202C104.97 72.0002 104.6 73.7502 104.95 73.9302C105.16 74.0402 105.51 73.6302 105.71 73.0402ZM4.90999 64.8802C4.83999 64.2202 4.56999 63.6702 4.32999 63.6702C3.87999 63.7102 4.00999 65.3702 4.49999 65.8202C4.74999 66.0502 4.94999 65.7202 4.92999 65.0902C4.92999 65.0302 4.92999 64.9402 4.90999 64.8802ZM108.29 63.3902C108.39 62.6502 108.26 62.1402 107.97 62.1702C107.67 62.2802 107.51 62.8902 107.47 63.2402V63.3002C107.34 64.1902 107.57 64.6702 107.85 64.4802C107.94 64.4202 108.17 64.1802 108.29 63.3902ZM4.12999 54.9702C4.15999 54.4302 4.05999 53.6602 3.71999 53.6902C3.15999 53.9302 3.26999 55.8102 3.65999 55.9602C3.66999 55.9602 3.68999 55.9602 3.69999 55.9602H3.70999C3.98999 55.9202 4.09999 55.3102 4.12999 54.9602M108.74 53.3402C108.72 52.6902 108.5 52.1402 108.26 52.1402C107.79 52.1602 107.77 53.9902 108.25 54.3702C108.31 54.4202 108.36 54.4202 108.39 54.4202C108.69 54.3402 108.75 53.7102 108.74 53.3502M5.48999 45.0602C5.60999 44.4702 5.55999 43.8602 5.25999 43.8902C4.73999 44.0702 4.38999 45.8902 4.83999 46.0702C5.04999 46.1602 5.34999 45.6802 5.48999 45.0502M107.09 43.6402C106.98 42.9902 106.66 42.4302 106.4 42.4302C105.93 42.4902 106.17 44.1302 106.71 44.5502C107 44.7702 107.19 44.3902 107.11 43.7402C107.11 43.7102 107.1 43.6702 107.09 43.6302M8.80999 35.9602C8.95999 35.5702 9.14999 34.7402 8.71999 34.8202C8.05999 35.1402 7.63999 36.7502 8.00999 36.8802C8.21999 36.9502 8.57999 36.5402 8.80999 35.9602ZM103.47 34.5702C103.28 34.0402 102.89 33.4702 102.6 33.4902C102.16 33.5602 102.56 34.9802 103.15 35.4402C103.45 35.6802 103.64 35.5102 103.59 35.0402C103.58 34.9002 103.53 34.7302 103.48 34.5702M13.85 27.7402C14.04 27.3802 14.3 26.6702 13.87 26.7302C13.18 26.9802 12.51 28.4702 12.87 28.6302C13.08 28.7302 13.54 28.3102 13.86 27.7402M98.28 26.6302C98.03 26.1202 97.53 25.5702 97.22 25.5902C96.78 25.6802 97.38 26.9302 97.96 27.3602C98.29 27.6002 98.5 27.5102 98.45 27.1402C98.44 27.0402 98.4 26.8702 98.28 26.6402M20.07 20.8002C20.38 20.3702 20.61 19.7902 20.21 19.8402C19.49 20.0402 18.65 21.3702 18.99 21.5702C19.19 21.6902 19.69 21.3302 20.08 20.8102M91.88 19.8002C91.57 19.3502 91.04 18.8702 90.73 18.9002C90.32 19.0002 90.98 20.0802 91.6 20.4802C91.96 20.7202 92.19 20.6502 92.13 20.3302C92.1 20.1902 92.01 19.9902 91.88 19.8002ZM27.01 15.0702C27.31 14.7102 27.56 14.2202 27.17 14.2502C26.47 14.3902 25.55 15.5602 25.83 15.7802C26.01 15.9202 26.59 15.5802 27.01 15.0702ZM84.96 14.3502C84.63 13.9302 84.06 13.5002 83.74 13.5202C83.35 13.6302 84.03 14.5502 84.67 14.9102C85.06 15.1302 85.29 15.0602 85.2 14.7602C85.18 14.6802 85.12 14.5402 84.97 14.3502M33.85 10.7802C34.24 10.3902 34.34 10.0502 34.07 10.0502C34.06 10.0502 34.04 10.0502 34.03 10.0502C33.36 10.1502 32.46 11.1302 32.71 11.3402C32.87 11.4802 33.43 11.2102 33.85 10.7802ZM78.11 10.2002C77.85 9.91021 77.3 9.50021 76.95 9.53021C76.59 9.64021 77.18 10.3602 77.79 10.6902C78.2 10.9102 78.46 10.8502 78.35 10.5602C78.33 10.5002 78.27 10.3802 78.11 10.2002ZM40.18 7.69021C40.46 7.41021 40.59 7.10021 40.31 7.09021C40.31 7.09021 40.29 7.09021 40.28 7.09021C39.73 7.15021 38.84 7.96021 39.07 8.18021C39.22 8.33021 39.78 8.08021 40.18 7.68021M71.93 7.33021C71.69 7.06021 71.18 6.70021 70.84 6.73021C70.5 6.84021 71.03 7.44021 71.51 7.70021C71.91 7.91021 72.19 7.87021 72.1 7.61021C72.09 7.56021 72.04 7.47021 71.92 7.33021M45.64 5.68021C45.88 5.43021 45.97 5.15021 45.69 5.14021C45.69 5.14021 45.68 5.14021 45.67 5.14021C45.18 5.17021 44.44 5.86021 44.66 6.07021C44.81 6.22021 45.31 6.02021 45.64 5.68021ZM66.55 5.41021C66.41 5.24021 65.99 4.89021 65.63 4.92021C65.29 5.03021 65.71 5.56021 66.14 5.77021C66.51 5.96021 66.77 5.88021 66.69 5.62021C66.66 5.53021 66.59 5.44021 66.56 5.41021M50.28 4.43021C50.43 4.21021 50.43 3.97021 50.15 3.97021C49.71 3.99021 49.17 4.58021 49.4 4.79021C49.58 4.95021 50.05 4.75021 50.28 4.43021ZM62.06 4.32021C61.94 4.09021 61.61 3.84021 61.32 3.86021C60.99 3.91021 61.09 4.31021 61.42 4.55021C61.75 4.80021 62.14 4.76021 62.11 4.48021C62.11 4.43021 62.09 4.38021 62.06 4.33021M54.29 3.86021C54.38 3.62021 54.23 3.41021 53.99 3.41021C53.59 3.41021 53.27 3.91021 53.52 4.14021C53.73 4.34021 54.18 4.18021 54.29 3.86021ZM58.11 3.80021C58.08 3.59021 57.86 3.37021 57.57 3.38021C57.19 3.44021 57.16 3.86021 57.43 4.08021C57.74 4.33021 58.17 4.15021 58.11 3.80021Z" fill="#A93911"/>
<path d="M57.28 111.5C57.37 111.37 57.32 111.25 57.17 111.25C56.94 111.25 56.78 111.51 56.89 111.63C56.93 111.67 56.99 111.67 57.01 111.67C57.18 111.65 57.27 111.52 57.29 111.5M55.35 111.48C55.31 111.36 55.16 111.24 54.99 111.25C54.8 111.28 54.85 111.46 55.03 111.59C55.21 111.72 55.39 111.69 55.36 111.53C55.36 111.52 55.36 111.5 55.35 111.49M59.43 111.26C59.61 111.14 59.66 111.02 59.56 110.99C59.56 110.99 59.54 110.99 59.52 110.99C59.25 110.99 58.83 111.34 58.9 111.43C58.96 111.5 59.25 111.39 59.43 111.25M53.17 111.23C53.04 111.11 52.77 110.96 52.59 110.96C52.46 110.98 52.54 111.1 52.69 111.21C52.92 111.38 53.3 111.5 53.29 111.38C53.29 111.34 53.24 111.29 53.17 111.23ZM62.34 110.68C62.6 110.53 62.72 110.4 62.61 110.37C62.6 110.37 62.58 110.37 62.56 110.37C62.23 110.39 61.54 110.84 61.62 110.92C61.67 110.97 62.04 110.85 62.33 110.69M50.27 110.66C50.19 110.61 49.91 110.43 49.6 110.35C49.52 110.33 49.5 110.33 49.45 110.34C49.3 110.41 49.74 110.68 50.11 110.82C50.32 110.9 50.52 110.94 50.49 110.85C50.47 110.8 50.36 110.72 50.27 110.66ZM66.34 109.64C66.66 109.46 66.82 109.3 66.71 109.27C66.69 109.27 66.67 109.27 66.66 109.27C66.25 109.31 65.35 109.86 65.45 109.96C65.51 110.02 65.97 109.86 66.35 109.65M46.24 109.58C46.05 109.47 45.52 109.18 45.28 109.2C45.11 109.28 45.71 109.64 46.18 109.81C46.39 109.89 46.62 109.95 46.58 109.85C46.56 109.8 46.42 109.69 46.24 109.58ZM71.44 107.97C71.85 107.73 72.06 107.51 71.93 107.47C71.91 107.47 71.89 107.47 71.87 107.47C71.39 107.53 70.34 108.23 70.46 108.34C70.53 108.4 71.02 108.22 71.44 107.97ZM41.08 107.85C40.76 107.63 40.2 107.34 39.97 107.36C39.78 107.44 40.48 107.92 41.06 108.15C41.33 108.26 41.49 108.27 41.47 108.2C41.46 108.15 41.35 108.03 41.08 107.85ZM77.64 105.37C78.07 105.08 78.29 104.81 78.14 104.77C78.12 104.77 78.09 104.77 78.07 104.77C77.52 104.86 76.39 105.73 76.56 105.85C76.66 105.92 77.18 105.69 77.64 105.37ZM34.9 105.23C34.56 104.97 33.94 104.58 33.69 104.61C33.46 104.7 34.28 105.34 34.91 105.61C35.19 105.73 35.34 105.74 35.3 105.64C35.27 105.56 35.12 105.41 34.9 105.23ZM84.55 101.64C85 101.26 85.21 100.93 85 100.93C84.99 100.93 84.97 100.93 84.96 100.93C84.36 101.06 83.23 102.13 83.43 102.25C83.55 102.32 84.09 102.03 84.55 101.64ZM27.95 101.42C27.61 101.11 27.01 100.68 26.77 100.71C26.49 100.81 27.55 101.75 28.14 102C28.34 102.09 28.43 102.07 28.4 101.96C28.36 101.85 28.19 101.65 27.95 101.43M91.61 96.6503C92.07 96.1803 92.3 95.7503 92.09 95.7503C92.08 95.7503 92.06 95.7503 92.04 95.7503C91.44 95.9303 90.35 97.2103 90.57 97.3303C90.7 97.4003 91.17 97.0803 91.6 96.6403M20.86 96.3303C20.48 95.8903 19.93 95.4303 19.71 95.4503C19.41 95.5603 20.51 96.7403 21.05 97.0103C21.14 97.0503 21.33 97.1303 21.26 96.9203C21.19 96.7303 20.96 96.4503 20.86 96.3303ZM98.36 90.2203C98.78 89.6503 98.91 89.2303 98.73 89.2403C98.72 89.2403 98.7 89.2403 98.68 89.2403C98.1 89.4803 97.18 90.9103 97.42 91.0203C97.56 91.0803 97.98 90.7103 98.35 90.2103M14.17 89.8903C13.84 89.3903 13.35 88.8603 13.15 88.8803C12.87 88.9703 13.82 90.3903 14.33 90.6503C14.48 90.7203 14.53 90.6603 14.48 90.4803C14.46 90.4103 14.39 90.2203 14.17 89.8903ZM104.07 82.5803C104.31 82.1303 104.53 81.4903 104.26 81.5503C103.73 81.8503 103.04 83.4203 103.29 83.5003C103.41 83.5403 103.76 83.1803 104.08 82.5803M8.52999 82.2703C8.27999 81.7203 7.85999 81.1203 7.67999 81.1303C7.39999 81.2103 8.22999 82.9303 8.62999 83.0903C8.82999 83.1703 8.74999 82.7803 8.55999 82.3603C8.54999 82.3303 8.52999 82.2903 8.51999 82.2703M108.28 73.9903C108.49 73.4003 108.58 72.7703 108.38 72.8003C108.01 72.9603 107.42 74.8403 107.71 74.9103C107.83 74.9403 108.08 74.5403 108.28 73.9903ZM4.29999 73.5003C4.11999 72.8703 3.83999 72.3403 3.69999 72.3503C3.41999 72.4203 3.95999 74.2303 4.31999 74.4603C4.46999 74.5503 4.47999 74.2203 4.34999 73.7103C4.33999 73.6503 4.30999 73.5703 4.29999 73.5103M110.85 64.3403C110.93 63.8303 110.96 63.0903 110.76 63.1203C110.34 63.3803 110.25 65.4703 110.44 65.4803C110.59 65.4903 110.76 64.9403 110.84 64.4103C110.84 64.3903 110.84 64.3603 110.85 64.3403ZM1.83999 64.0203C1.76999 63.3503 1.58999 62.7703 1.44999 62.7803C1.17999 62.8403 1.42999 64.8803 1.72999 65.0103C1.85999 65.0603 1.90999 64.6303 1.83999 64.0203ZM111.46 54.2903C111.45 53.6303 111.32 53.0703 111.19 53.0703C110.8 53.1903 111.05 55.2503 111.24 55.3403H111.26C111.43 55.2703 111.46 54.6403 111.45 54.2803M1.28999 54.0103C1.31999 53.4803 1.28999 52.7003 1.09999 52.7303C0.979991 52.8203 0.899991 53.2203 0.859991 53.8203C0.839991 54.4803 0.899991 54.9403 1.01999 55.0003C1.16999 54.9603 1.24999 54.3603 1.26999 54.0103M110.13 44.5003C110.01 43.8403 109.77 43.2503 109.62 43.2503C109.33 43.3203 109.68 45.1803 110.03 45.4203C110.19 45.5303 110.24 45.1103 110.13 44.5003ZM2.71999 44.0803C2.82999 43.5903 2.89999 42.9103 2.71999 42.9303C2.27999 43.1803 2.07999 45.0903 2.26999 45.1103C2.40999 45.1303 2.60999 44.6003 2.72999 44.0803M106.96 35.2703C106.74 34.6503 106.4 34.1203 106.24 34.1303C105.89 34.2403 106.7 36.0403 107 36.1803C107.19 36.2703 107.18 35.8603 106.97 35.2703M5.97999 34.9403C6.13999 34.5603 6.38999 33.7603 6.11999 33.8403C5.94999 33.9603 5.79999 34.2003 5.62999 34.5603C5.24999 35.3903 5.18999 35.9803 5.39999 35.8703C5.51999 35.8103 5.75999 35.4703 5.97999 34.9403ZM102.15 26.9703C101.87 26.4603 101.43 25.9303 101.23 25.9403C100.94 26.0203 101.75 27.5203 102.24 27.8103C102.45 27.9303 102.46 27.7503 102.4 27.5503C102.36 27.4003 102.27 27.1803 102.15 26.9703ZM10.85 26.7203C11.07 26.3703 11.45 25.6103 11.14 25.6703C10.6 25.9403 9.80999 27.4603 10.04 27.5603C10.15 27.6103 10.49 27.3103 10.85 26.7203ZM96.03 19.7903C95.69 19.3403 95.18 18.8703 94.97 18.8903C94.66 18.9903 95.65 20.2603 96.16 20.5503C96.36 20.6603 96.45 20.6203 96.4 20.4303C96.36 20.2803 96.22 20.0303 96.03 19.7803M17.07 19.5503C17.47 19.0603 17.65 18.6503 17.47 18.6503C17.46 18.6503 17.44 18.6503 17.42 18.6503C16.8 18.8703 15.82 20.2403 16.06 20.3503C16.2 20.4203 16.66 20.0403 17.07 19.5403M89.15 13.9303C88.76 13.5203 88.17 13.0803 87.94 13.1003C87.66 13.2003 88.65 14.2303 89.23 14.5303C89.46 14.6403 89.57 14.6203 89.53 14.4803C89.5 14.3503 89.35 14.1503 89.15 13.9303ZM24.01 13.7103C24.46 13.2803 24.67 12.9103 24.48 12.9103C24.47 12.9103 24.45 12.9103 24.44 12.9103C23.81 13.0703 22.71 14.2603 22.93 14.3903C23.06 14.4603 23.55 14.1503 24.01 13.7103ZM82.06 9.37031C81.66 9.03031 81.08 8.68031 80.86 8.71031C80.6 8.81031 81.56 9.63031 82.15 9.89031C82.39 10.0003 82.52 9.98031 82.48 9.85031C82.47 9.81031 82.4 9.66031 82.07 9.38031M31.05 9.25031C31.49 8.90031 31.73 8.60031 31.58 8.57031C31.56 8.57031 31.54 8.57031 31.52 8.57031C30.9 8.69031 29.77 9.67031 29.97 9.79031C30.08 9.86031 30.58 9.61031 31.05 9.24031M75.38 6.08031C75.05 5.85031 74.48 5.54031 74.25 5.56031C74.04 5.64031 74.86 6.26031 75.43 6.49031C75.69 6.60031 75.84 6.60031 75.81 6.49031C75.8 6.46031 75.74 6.33031 75.39 6.08031M37.7 5.98031C38.03 5.76031 38.3 5.50031 38.16 5.46031C38.14 5.46031 38.12 5.46031 38.1 5.46031C37.6 5.53031 36.42 6.32031 36.61 6.46031C36.71 6.53031 37.22 6.31031 37.7 5.98031ZM69.6 3.87031C69.3 3.67031 68.75 3.41031 68.53 3.43031C68.35 3.51031 69.08 3.99031 69.54 4.17031C69.82 4.28031 69.97 4.27031 69.92 4.17031C69.89 4.10031 69.77 4.00031 69.6 3.89031M43.43 3.80031C43.73 3.62031 43.98 3.41031 43.86 3.38031C43.84 3.38031 43.82 3.38031 43.81 3.38031C43.36 3.42031 42.3 4.05031 42.46 4.18031C42.55 4.25031 43 4.08031 43.43 3.81031M64.86 2.43031C64.62 2.28031 64.17 2.07031 63.97 2.09031C63.82 2.16031 64.36 2.51031 64.74 2.66031C65.01 2.77031 65.18 2.76031 65.12 2.65031C65.1 2.61031 65.02 2.53031 64.86 2.43031ZM48.06 2.41031C48.31 2.26031 48.51 2.09031 48.41 2.06031C48.4 2.06031 48.38 2.06031 48.36 2.06031C47.99 2.09031 47.1 2.58031 47.24 2.69031C47.32 2.75031 47.7 2.62031 48.06 2.41031ZM61.26 1.59031C61.07 1.46031 60.75 1.31031 60.59 1.32031C60.45 1.34031 60.62 1.50031 60.74 1.58031C61.07 1.83031 61.46 1.92031 61.44 1.79031C61.44 1.77031 61.42 1.70031 61.26 1.59031ZM51.59 1.59031C51.77 1.47031 51.91 1.33031 51.81 1.30031C51.81 1.30031 51.8 1.30031 51.77 1.30031C51.47 1.31031 50.84 1.69031 50.93 1.80031C50.99 1.87031 51.31 1.77031 51.59 1.59031ZM58.6 1.19031C58.5 1.07031 58.28 0.940313 58.12 0.940313C57.95 0.970313 58.06 1.16031 58.22 1.28031C58.44 1.44031 58.67 1.42031 58.64 1.28031C58.64 1.25031 58.62 1.21031 58.59 1.18031M54.25 1.16031C54.35 1.05031 54.37 0.930313 54.23 0.930313C53.98 0.930313 53.6 1.26031 53.73 1.36031C53.82 1.43031 54.09 1.35031 54.25 1.16031ZM56.42 1.05031C56.42 0.950312 56.34 0.820312 56.17 0.820312C55.95 0.850312 55.88 1.08031 56.02 1.20031C56.08 1.25031 56.15 1.25031 56.18 1.26031C56.37 1.26031 56.42 1.12031 56.42 1.06031" fill="#A93911"/>
<path d="M56.23 112.46C56.23 112.46 56.21 112.45 56.19 112.44C56.19 112.44 56.2201 112.45 56.2401 112.45M56.35 112.46C56.45 112.46 56.5201 112.44 56.53 112.43C56.5201 112.43 56.49 112.43 56.46 112.44C56.38 112.45 56.3201 112.46 56.2401 112.46C56.2401 112.46 56.3 112.46 56.34 112.46M56.0601 112.45C55.9901 112.45 55.93 112.44 55.8601 112.43C55.8 112.43 55.78 112.42 55.7701 112.42C55.78 112.43 55.9801 112.46 56.2401 112.46C56.2401 112.46 56.1401 112.46 56.0601 112.46M57.01 112.41C57.22 112.39 57.35 112.36 57.37 112.35C57.37 112.35 57.36 112.35 57.35 112.35C57.11 112.38 56.87 112.42 56.64 112.44C56.64 112.44 56.82 112.44 57.0201 112.41M55.2401 112.39C55.1401 112.38 55.03 112.36 54.93 112.34C54.78 112.32 54.7201 112.31 54.7001 112.31C54.73 112.34 55.32 112.41 55.5601 112.43C55.4501 112.41 55.3501 112.41 55.2401 112.39ZM58.7201 112.24C58.9001 112.21 59.14 112.16 59.2201 112.13C59.2201 112.13 59.22 112.13 59.21 112.13C59.1 112.13 58.1301 112.33 58.1301 112.33C58.16 112.33 58.4601 112.3 58.7201 112.25M53.26 112.16C52.74 112.06 52.58 112.02 52.53 112.03C52.65 112.1 53.58 112.25 53.73 112.26C53.73 112.26 53.5734 112.227 53.26 112.16ZM61.76 111.78C61.81 111.77 62.28 111.65 62.3601 111.59H62.34C62.1501 111.6 61.08 111.89 60.98 111.93C61 111.95 61.5 111.85 61.7701 111.78M49.9501 111.61C49.12 111.38 49.0401 111.39 49.0201 111.39C49.1001 111.5 50.42 111.79 50.5 111.78C50.48 111.76 50.4501 111.75 49.96 111.61M66.14 110.86C66.38 110.78 66.83 110.62 66.88 110.56C66.88 110.56 66.88 110.56 66.84 110.56C66.57 110.59 65.34 111.01 65.26 111.09C65.33 111.12 65.98 110.93 66.14 110.88M45.2401 110.53C45.1401 110.49 44.3001 110.19 44.1501 110.21C44.2301 110.35 45.6601 110.8 45.8301 110.78C45.8301 110.76 45.8101 110.73 45.25 110.53M71.87 109.22C72.1301 109.11 72.63 108.88 72.64 108.8C72.63 108.8 72.63 108.79 72.59 108.8C72.26 108.85 70.92 109.43 70.88 109.54C70.93 109.59 71.5 109.38 71.87 109.23M39.3101 108.7C38.91 108.51 38.25 108.23 38.1101 108.25C38.1301 108.4 39.8101 109.14 39.91 109.04C39.89 108.98 39.53 108.8 39.32 108.7M78.56 106.64C78.94 106.43 79.34 106.18 79.33 106.1C79.32 106.1 79.31 106.09 79.27 106.1C78.89 106.18 77.5 106.95 77.51 107.08C77.58 107.13 78.11 106.9 78.56 106.65M32.4901 105.87C32.0701 105.61 31.4 105.25 31.26 105.27C31.26 105.27 31.26 105.27 31.25 105.27C31.22 105.43 32.89 106.39 33.07 106.31C33.07 106.24 32.66 105.97 32.4901 105.87ZM85.76 102.89C86.2401 102.55 86.57 102.24 86.49 102.2C86.48 102.2 86.46 102.2 86.44 102.2C85.9201 102.35 84.59 103.4 84.72 103.45C84.8 103.48 85.28 103.22 85.75 102.88M25.26 101.84C24.8601 101.52 24.2 101.06 24.06 101.08C23.89 101.2 25.4701 102.33 25.7701 102.4C25.82 102.41 25.83 102.4 25.81 102.36C25.76 102.28 25.5501 102.08 25.2701 101.85M92.97 97.8C93.48 97.33 93.74 96.97 93.63 96.98C93.63 96.98 93.61 96.98 93.6 96.98C93.12 97.18 91.88 98.46 92 98.51C92.08 98.54 92.5201 98.22 92.97 97.8ZM18.0401 96.36C17.6201 95.92 17.1101 95.48 17.01 95.5C16.8801 95.6 18.3801 97.1 18.6101 97.1C18.67 97.02 18.1401 96.47 18.0301 96.36M99.57 91.38C99.87 91.01 100.28 90.45 100.21 90.37C100.21 90.37 100.19 90.37 100.17 90.37C99.82 90.58 98.7101 92.01 98.8 92.12C98.97 92.09 99.46 91.49 99.56 91.37M11.58 89.6C11.23 89.12 10.81 88.6 10.73 88.62C10.64 88.75 11.81 90.34 12.06 90.43C12.08 90.32 11.66 89.73 11.57 89.61M105.11 83.7C105.38 83.22 105.65 82.68 105.62 82.6C105.62 82.6 105.6 82.6 105.59 82.6C105.28 82.9 104.48 84.41 104.52 84.53C104.64 84.5 105 83.87 105.11 83.68M6.33005 81.69C6.33005 81.69 5.83005 80.68 5.70005 80.59C5.66005 80.71 6.55005 82.47 6.71005 82.58C6.75005 82.52 6.41005 81.83 6.34005 81.69M109.22 75C109.39 74.52 109.57 73.95 109.57 73.84C109.57 73.84 109.57 73.84 109.56 73.84C109.42 74.01 108.8 75.81 108.83 75.93C108.91 75.87 109.15 75.21 109.22 75ZM2.57005 72.81C2.43005 72.33 2.21005 71.65 2.17005 71.62C2.17005 71.74 2.72005 73.57 2.82005 73.75C2.84005 73.72 2.66005 73.09 2.58005 72.82M111.56 66.24C111.67 65.6 111.78 64.96 111.87 64.32V64.29C111.89 64.17 111.89 64.14 111.89 64.1C111.82 64.28 111.5 66.27 111.51 66.47C111.51 66.46 111.53 66.45 111.57 66.24M0.460049 63.16C0.460049 63.09 0.440049 63 0.430049 62.93C0.360049 62.33 0.300049 61.91 0.290049 61.89C0.290049 61.91 0.290049 61.92 0.300049 62.04C0.370049 62.69 0.440049 63.34 0.530049 63.98V64.01C0.530049 64.01 0.540049 64.09 0.550049 64.13C0.550049 64.09 0.480049 63.44 0.450049 63.17M112.46 56.14C112.46 55.43 112.45 54.73 112.42 54.02C112.42 54.02 112.42 54 112.42 53.99C112.38 54.18 112.42 56.09 112.46 56.27C112.46 56.27 112.46 56.26 112.46 56.25V56.14ZM0.110049 53.05C0.140049 52.48 0.180049 51.83 0.170049 51.76C0.170049 51.79 0.170049 51.81 0.170049 51.84C0.120049 52.54 0.0800488 53.24 0.0500488 53.95V53.97C0.0500488 53.97 0.0500488 54.01 0.0500488 54.02C0.0600488 53.93 0.110049 53.2 0.110049 53.05ZM111.5 45.7C111.43 45.34 111.36 44.98 111.29 44.62L111.27 44.55C111.2 44.22 111.16 44.08 111.14 44.06C111.12 44.26 111.49 46.09 111.57 46.25C111.57 46.23 111.59 46.19 111.5 45.69M1.57005 43.07C1.67005 42.66 1.81005 42.02 1.81005 41.93C1.73005 42.11 1.29005 44 1.30005 44.1C1.33005 44.05 1.41005 43.74 1.55005 43.18C1.55005 43.15 1.57005 43.1 1.58005 43.07M108.66 35.85C108.5 35.44 108.23 34.78 108.16 34.76C108.11 34.89 108.84 36.79 108.96 36.83C108.99 36.77 108.79 36.18 108.66 35.85ZM4.73005 33.89C4.85005 33.61 5.16005 32.86 5.13005 32.81C4.97005 32.98 4.21005 34.75 4.26005 34.85C4.35005 34.77 4.68005 34.04 4.74005 33.89M104.37 27.42C104.04 26.84 103.67 26.32 103.6 26.34C103.51 26.45 104.54 28.17 104.74 28.26C104.74 28.26 104.74 28.26 104.75 28.26C104.77 28.13 104.44 27.55 104.37 27.44M9.45005 25.61C9.65005 25.31 10.02 24.7 9.99005 24.6C9.99005 24.6 9.97005 24.6 9.96005 24.6C9.66005 24.85 8.73005 26.3 8.76005 26.46C8.90005 26.4 9.35005 25.73 9.43005 25.59M98.64 19.95C98.26 19.48 97.76 18.97 97.66 18.99C97.5601 19.11 98.89 20.71 99.1 20.72C99.17 20.72 99.05 20.53 99.02 20.47C99.02 20.47 98.9 20.27 98.64 19.95ZM15.49 18.43C15.94 17.93 16.25 17.51 16.15 17.51C16.15 17.51 16.1301 17.51 16.1201 17.51C15.6901 17.73 14.58 19.04 14.63 19.18C14.75 19.23 15.46 18.45 15.49 18.42M91.86 13.69C91.43 13.29 90.86 12.86 90.73 12.88C90.5601 13 92.08 14.29 92.35 14.37C92.42 14.39 92.43 14.36 92.38 14.28C92.31 14.16 92.11 13.94 91.85 13.7M22.4401 12.49C22.9601 12.05 23.2901 11.7 23.17 11.7C23.17 11.7 23.15 11.7 23.14 11.7C23.01 11.74 22.87 11.84 22.65 11.99C21.88 12.55 21.39 13.08 21.48 13.12C21.56 13.15 21.9701 12.88 22.4401 12.48M84.65 8.84C84.2001 8.52 83.6 8.17 83.46 8.19C83.3 8.3 84.9 9.35 85.18 9.4C85.27 9.42 85.25 9.37 85.21 9.32C85.18 9.28 85.0601 9.13 84.65 8.84ZM29.66 7.97C30.1101 7.68 30.5301 7.36 30.4501 7.33C30.4401 7.33 30.42 7.33 30.41 7.33C30.3 7.36 30.17 7.42 29.98 7.51C29.17 7.94 28.56 8.43 28.67 8.48C28.75 8.51 29.18 8.29 29.67 7.97M77.54 5.31C77.09 5.06 76.49 4.8 76.35 4.81C76.35 4.95 78.0301 5.83 78.16 5.75C78.18 5.65 77.61 5.34 77.55 5.3M36.73 4.68C36.85 4.62 37.44 4.31 37.46 4.22C37.46 4.22 37.4501 4.22 37.41 4.22C37.0201 4.29 35.6401 4.95 35.6501 5.11C35.7401 5.17 36.4 4.86 36.73 4.69M71.1 2.94C70.66 2.75 70.04 2.53 69.91 2.54C69.9601 2.67 71.55 3.31 71.64 3.23C71.63 3.16 71.23 2.98 71.11 2.92M42.98 2.51C43.18 2.43 43.65 2.24 43.69 2.17C43.68 2.17 43.66 2.17 43.6501 2.17C43.3101 2.21 42.0101 2.69 41.9701 2.82C42.0301 2.87 42.6301 2.65 42.98 2.51ZM65.61 1.43C65.19 1.29 64.65 1.15 64.56 1.16C64.59 1.23 65.53 1.53 65.89 1.62C66.08 1.67 66.11 1.66 66.12 1.65C66.08 1.59 65.72 1.47 65.61 1.43ZM48.1301 1.18C48.4001 1.1 48.7401 0.99 48.7901 0.95C48.7901 0.95 48.77 0.95 48.76 0.95C48.5 0.97 47.34 1.29 47.25 1.4C47.35 1.41 47.78 1.29 48.12 1.18M61.41 0.58C61.05 0.49 60.6 0.41 60.55 0.41C60.62 0.45 61.76 0.74 61.87 0.73C61.84 0.69 61.61 0.63 61.42 0.58M51.94 0.46C52.45 0.34 52.4901 0.33 52.5201 0.32C52.3301 0.33 51.39 0.51 51.25 0.6C51.2701 0.61 51.2901 0.62 51.9501 0.47M58.62 0.19C58.33 0.14 58 0.1 57.98 0.1C57.98 0.1 58.91 0.29 58.9901 0.28C58.9501 0.25 58.74 0.21 58.62 0.19ZM54.3801 0.14C54.5301 0.11 54.68 0.1 54.84 0.07C54.64 0.07 53.91 0.18 53.8801 0.22C53.91 0.22 53.92 0.22 54.39 0.14M57.07 0.04C56.87 0.01 56.68 0.01 56.67 0.01C57.0967 0.0633333 57.3134 0.09 57.32 0.09C57.32 0.09 57.1501 0.05 57.07 0.04ZM55.64 0.03C55.69 0.03 55.76 0.02 55.85 0.01C55.85 0.01 55.8701 0.01 55.8801 0.01H55.89C55.89 0.01 55.9201 0.02 55.93 0.01C55.69 0.01 55.3701 0.05 55.3301 0.08C55.3301 0.08 55.4334 0.0666667 55.64 0.04M56.42 0C56.42 0 56.3501 0 56.3101 0C56.3101 0 56.3601 0 56.4001 0.02C56.4601 0.03 56.5 0.04 56.51 0.03C56.5 0.02 56.43 0.01 56.42 0.01M56.1501 0C56.1501 0 56.18 0 56.2001 0H56.1501C56.1501 0 56.04 0 56.03 0.03C56.03 0.03 56.0301 0.03 56.0401 0.03C56.0401 0.03 56.1101 0.02 56.14 0.01" fill="#A93911"/>
<path d="M56.82 104.7C56.87 104.32 56.59 103.82 55.93 103.85C55.14 103.97 55.01 104.8 55.54 105.2C56.03 105.57 56.73 105.29 56.82 104.7ZM52.42 104.44C52.39 103.99 51.94 103.51 51.34 103.54C50.6 103.64 50.65 104.47 51.26 104.89C51.82 105.29 52.46 105.04 52.42 104.43M61.2 104.37C61.36 103.91 61.08 103.53 60.6 103.53C59.86 103.55 59.35 104.43 59.8 104.9C60.19 105.3 60.99 105 61.2 104.37ZM47.87 103.47C47.72 103.02 47.18 102.55 46.62 102.57C45.95 102.66 46.1 103.44 46.72 103.91C47.34 104.39 48 104.23 47.91 103.62C47.91 103.57 47.89 103.51 47.87 103.46M65.7 103.49C65.99 102.99 65.8 102.56 65.3 102.56C64.45 102.61 63.84 103.68 64.27 104.07C64.4 104.19 64.59 104.22 64.84 104.16C65.35 104 65.61 103.64 65.7 103.49ZM42.99 101.88C42.79 101.43 42.17 100.83 41.52 100.88C40.81 101.08 41.39 102.08 42.11 102.47C42.73 102.81 43.18 102.6 43.04 102.05C43.03 102 43 101.93 42.98 101.88M70.61 101.82C70.92 101.34 70.88 100.85 70.31 100.86C69.35 100.94 68.59 102.2 69.09 102.55C69.43 102.79 70.22 102.42 70.61 101.82ZM37.65 99.4004C37.4 98.9504 36.73 98.3003 36.1 98.3503C35.38 98.5404 36.04 99.6204 36.82 100.08C37.49 100.48 37.96 100.28 37.77 99.6804C37.75 99.6003 37.7 99.4903 37.65 99.4004ZM75.9 99.4203C76.3 98.8803 76.33 98.3004 75.72 98.3204C74.72 98.4404 73.84 99.8703 74.33 100.2C74.66 100.42 75.44 100.03 75.9 99.4203ZM32 96.0603C31.72 95.5203 30.99 94.8003 30.36 94.8403C29.64 95.0203 30.3 96.2504 31.22 96.7904C31.88 97.1804 32.31 96.9803 32.13 96.3503C32.11 96.2703 32.06 96.1404 32.01 96.0504M81.62 95.9903C82.03 95.4004 82.05 94.7904 81.45 94.8204C80.39 94.9903 79.44 96.6003 79.98 96.9203C80.34 97.1303 81.15 96.6704 81.62 95.9804M26.19 91.6303C25.87 91.0004 25.17 90.3304 24.6 90.3704C23.7 90.5604 24.94 92.2204 25.18 92.3103C26.07 93.0203 26.44 92.6804 26.37 92.1604C26.35 92.0104 26.28 91.8103 26.19 91.6303ZM87.36 91.6604C87.75 91.0704 87.91 90.2903 87.2 90.3403C86.15 90.5503 85.23 92.2204 85.74 92.6003C86.08 92.8604 86.87 92.4004 87.36 91.6504M20.72 86.3403C20.44 85.6303 19.76 84.9004 19.19 84.9304C18.43 85.0704 19.02 86.5904 19.9 87.2204C20.5 87.6504 20.93 87.4504 20.84 86.8004C20.83 86.7004 20.79 86.5503 20.71 86.3403M92.89 86.2504C93.2 85.6604 93.33 84.8304 92.62 84.8904C91.53 85.1703 90.74 87.0203 91.33 87.3503C91.71 87.5704 92.47 87.0303 92.89 86.2403M15.88 79.9804C15.64 79.2704 15.04 78.5204 14.52 78.5404C13.73 78.6504 14.25 80.3904 15.08 81.0203C15.67 81.4703 16.1 81.1504 15.98 80.3503C15.96 80.2403 15.93 80.0904 15.89 79.9704M97.66 80.0203C97.97 79.3303 98.02 78.4304 97.3 78.5104C96.24 78.8503 95.61 80.8004 96.23 81.1404C96.61 81.3503 97.29 80.8204 97.65 80.0203M12.11 72.9104C11.95 72.0504 11.39 71.3104 10.91 71.3204C10.13 71.4004 10.39 73.3304 11.27 74.0004C11.82 74.4203 12.25 73.9504 12.13 73.0404C12.13 73.0004 12.12 72.9504 12.11 72.9004M101.44 72.8103C101.68 72.0303 101.54 71.2303 100.97 71.2703C100.03 71.4703 99.38 73.5704 100.11 74.0504C100.51 74.3104 101.17 73.7003 101.43 72.8103M9.67002 65.0203C9.58002 64.1603 9.14002 63.4404 8.69002 63.4504C7.88002 63.5104 7.93002 65.5803 8.75002 66.2703C9.29002 66.7203 9.77002 66.0704 9.67002 65.0303M103.84 65.0804C104.01 64.2404 103.8 63.3404 103.21 63.3904C102.82 63.4903 102.51 63.9404 102.35 64.6604C102.13 65.9004 102.64 66.6104 103.19 66.2504C103.48 66.0604 103.73 65.6104 103.85 65.0804M8.77002 56.8204C8.80002 56.1604 8.58002 55.2004 8.01002 55.1404C7.07002 55.2403 7.05002 57.4903 7.74002 58.0704C8.21002 58.4604 8.73002 57.8303 8.77002 56.8204ZM104.74 56.5303V56.4704C104.72 55.5904 104.42 54.9904 103.97 54.9504C103.38 55.0104 103.18 55.9404 103.19 56.5404V56.6003C103.21 57.8803 103.85 58.4403 104.33 57.9403C104.51 57.7603 104.72 57.3703 104.75 56.6003V56.5504V56.5303M9.49002 48.5704C9.63002 47.8303 9.49002 46.8303 8.86002 46.8904C7.87002 47.1503 7.71002 49.4604 8.41002 49.8104C8.82002 50.0204 9.33002 49.4403 9.49002 48.5704ZM103.97 48.2603C103.89 47.4003 103.44 46.6804 102.99 46.6903C102.59 46.7203 102.25 47.3204 102.43 48.3804C102.7 49.6204 103.42 49.9804 103.79 49.3604C103.94 49.1004 104.01 48.6903 103.97 48.2504M11.79 40.6203C12.01 39.8503 11.89 39.0404 11.33 39.0904C10.41 39.2904 9.79002 41.4004 10.5 41.8804C10.86 42.1204 11.51 41.6104 11.79 40.6203ZM101.68 40.4904C101.54 39.7304 101.01 38.8904 100.48 38.9104C99.68 38.9904 99.9 40.9304 100.79 41.6003C101.36 42.0303 101.82 41.5403 101.71 40.6203C101.71 40.5803 101.7 40.5204 101.69 40.4804M15.43 33.4704C15.67 32.9004 15.81 31.8804 15.08 31.9704C14 32.3204 13.4 34.2603 14.03 34.6203C14.42 34.8403 15.08 34.2904 15.43 33.4704ZM97.99 33.2304C97.76 32.5204 97.16 31.7703 96.63 31.8004C95.83 31.9104 96.3 33.6604 97.13 34.2904C97.73 34.7504 98.2 34.4204 98.09 33.6104C98.08 33.5004 98.04 33.3404 98 33.2304M20.19 27.0304C20.48 26.4504 20.6 25.6204 19.92 25.6804C18.82 25.9604 18.03 27.8104 18.63 28.1604C19.02 28.3904 19.78 27.8404 20.18 27.0204M93.29 26.9504C93.02 26.2604 92.32 25.5104 91.76 25.5404C91.01 25.6704 91.55 27.2204 92.4 27.8404C93.04 28.3104 93.53 28.0403 93.39 27.3004C93.37 27.2003 93.33 27.0604 93.29 26.9504ZM25.61 21.6504C25.97 21.0704 26.11 20.2904 25.45 20.3404C25.16 20.4004 24.96 20.5304 24.7 20.7404C23.71 21.6404 23.56 22.7104 24.22 22.7104C24.64 22.7104 25.24 22.2604 25.61 21.6604M87.82 21.4804C87.54 20.9304 86.83 20.1904 86.23 20.2304C85.51 20.3804 86.1 21.7704 86.96 22.3604C87.62 22.8004 88.11 22.5904 87.97 21.9204C87.94 21.7804 87.89 21.6404 87.81 21.4804M31.41 17.1304C31.72 16.6404 31.88 15.9404 31.24 15.9704C30.16 16.1404 29.2 17.7804 29.75 18.1004C30.13 18.3204 30.95 17.8404 31.41 17.1204M82.07 17.1004C81.8 16.5804 81.06 15.8504 80.43 15.8904C79.73 16.0604 80.34 17.3304 81.21 17.8704C81.89 18.2904 82.38 18.0604 82.2 17.4104C82.18 17.3204 82.13 17.2004 82.07 17.1004ZM37.11 13.7004C37.48 13.1504 37.5 12.5904 36.93 12.6104C35.89 12.7304 34.98 14.1804 35.5 14.5304C35.86 14.7704 36.66 14.3604 37.11 13.7004ZM76.32 13.6004C76.07 13.1504 75.4 12.5104 74.77 12.5604C74.11 12.7304 74.6 13.8104 75.4 14.3104C76.05 14.7104 76.58 14.5504 76.46 13.9704C76.44 13.8504 76.39 13.7304 76.31 13.5904M42.54 11.1304C42.82 10.6604 42.78 10.1704 42.24 10.1804C41.34 10.2604 40.41 11.5104 40.96 11.9004C41.34 12.1704 42.15 11.7704 42.54 11.1204M70.94 11.1404C70.74 10.7004 70.1 10.1004 69.48 10.1504C68.76 10.3504 69.29 11.3604 69.99 11.7604C70.63 12.1304 71.17 11.8904 71.01 11.3104C71 11.2604 70.97 11.1904 70.95 11.1304M47.53 9.49035C47.76 9.04035 47.65 8.57035 47.12 8.58035C46.27 8.63035 45.51 9.76035 46.06 10.1504C46.45 10.4304 47.22 10.0904 47.53 9.49035ZM65.93 9.43035C65.76 8.99035 65.23 8.52035 64.69 8.55035C64 8.64035 64.15 9.51035 64.77 9.97035C65.34 10.3904 66.08 10.2704 65.97 9.60035C65.97 9.55035 65.94 9.48035 65.92 9.43035M52.22 8.48035C52.34 8.03035 52.06 7.65035 51.61 7.65035C50.85 7.67035 50.28 8.65035 50.77 9.09035C51.2 9.47035 52.04 9.12035 52.21 8.48035M61.29 8.53035C61.23 8.09035 60.78 7.62035 60.22 7.65035C59.5 7.75035 59.49 8.60035 60.05 9.02035C60.63 9.46035 61.38 9.17035 61.3 8.53035M56.77 8.20035C56.8 7.87035 56.56 7.39035 55.96 7.36035C55.17 7.40035 54.89 8.24035 55.34 8.68035C55.84 9.17035 56.72 8.87035 56.77 8.20035Z" fill="#A93911"/>
<path d="M57.28 15.7396C57.32 15.1696 56.93 14.3596 55.93 14.3096C54.55 14.3796 54.14 15.9196 55.02 16.6396C55.37 16.9296 55.75 16.9396 55.91 16.9496C56.92 16.8996 57.25 16.1596 57.28 15.7396Z" fill="#A93911"/>
<path d="M63.73 16.3503C63.67 15.7203 63.06 14.8603 62.07 14.9103C60.84 15.0803 60.76 16.5903 61.68 17.2803C62.63 17.9903 63.84 17.4503 63.73 16.3503Z" fill="#A93911"/>
<path d="M50.7401 16.3703C50.9301 15.5803 50.42 14.9003 49.63 14.9103C48.4 14.9603 47.59 16.5103 48.39 17.2903C49.11 17.9903 50.4701 17.4603 50.7401 16.3703Z" fill="#A93911"/>
<path d="M70.2 18.2504C70.09 17.7404 69.45 16.6604 68.29 16.7604C67 17.0904 67.44 18.7004 68.43 19.3004C69.45 19.9104 70.44 19.3304 70.21 18.2604" fill="#A93911"/>
<path d="M44.2 18.2796C44.47 17.5296 44.17 16.7296 43.29 16.7596C41.99 16.8596 41.03 18.5796 41.86 19.3196C42 19.4396 42.39 19.6996 43.08 19.4496C43.78 19.1396 44.08 18.6496 44.21 18.2896" fill="#A93911"/>
<path d="M76.76 21.5097C76.56 20.7997 75.75 19.8497 74.76 19.9197C73.56 20.1897 73.95 21.9097 75.09 22.6097C76.14 23.2497 77.08 22.6297 76.76 21.5097Z" fill="#A93911"/>
<path d="M37.62 21.5301C37.96 20.7301 37.71 19.8901 36.8 19.9301C35.3 20.1101 34.45 22.0801 35.29 22.7101C35.95 23.2101 37.17 22.5901 37.61 21.5301" fill="#A93911"/>
<path d="M83.19 26.1498C82.98 25.3998 82.16 24.3898 81.18 24.4498C80 24.6698 80.32 26.4098 81.42 27.2298C82.39 27.9598 83.37 27.5398 83.25 26.4498C83.24 26.3598 83.22 26.2398 83.19 26.1498Z" fill="#A93911"/>
<path d="M31.17 26.1696C31.52 25.3096 31.32 24.4096 30.36 24.4696C28.86 24.7196 28.02 26.7496 28.83 27.4296C29.48 27.9696 30.7 27.3096 31.16 26.1796" fill="#A93911"/>
<path d="M89.0601 32.1695C88.85 31.2595 88.03 30.2995 87.13 30.3495C85.88 30.5295 86.2301 32.5795 87.3701 33.3995C88.3501 34.0995 89.2601 33.5295 89.0801 32.3395C89.0801 32.2895 89.0601 32.2295 89.0501 32.1795" fill="#A93911"/>
<path d="M25.2899 32.1901C25.5699 31.4101 25.4799 30.3001 24.4099 30.3801C22.8599 30.7201 22.1699 33.0401 23.1299 33.6101C23.8099 34.0101 24.8999 33.2901 25.2899 32.1901Z" fill="#A93911"/>
<path d="M93.8001 39.4602C93.6701 38.5202 92.9101 37.4902 92.0401 37.5202C90.8201 37.6402 90.8501 39.8302 92.0801 40.7702C93.0401 41.5002 93.9901 40.7702 93.8001 39.4602Z" fill="#A93911"/>
<path d="M20.54 39.4697C20.77 38.6397 20.6 37.4597 19.51 37.5597C17.99 37.9997 17.53 40.4197 18.53 40.9797C19.23 41.3697 20.23 40.6197 20.54 39.4597" fill="#A93911"/>
<path d="M96.88 47.7796C96.84 46.6796 96.13 45.7196 95.36 45.7396C94.13 45.8096 93.91 48.1096 95.03 49.1196C95.91 49.9096 96.93 49.1696 96.88 47.7796Z" fill="#A93911"/>
<path d="M17.45 47.7996C17.62 46.7796 17.21 45.7296 16.31 45.7896C14.86 46.0696 14.53 48.6696 15.55 49.3396C16.28 49.8296 17.24 49.0496 17.45 47.7996Z" fill="#A93911"/>
<path d="M97.9 56.7499C97.97 55.8199 97.52 54.5799 96.51 54.6599C95.09 54.9899 95.04 57.6199 96.13 58.3099C96.33 58.4399 96.47 58.4499 96.62 58.4599C97.53 58.3899 97.85 57.3499 97.89 56.7499" fill="#A93911"/>
<path d="M96.7499 65.6699C96.9399 64.6499 96.5299 63.5899 95.6099 63.6499C94.1399 63.9299 93.7799 66.5199 94.8099 67.1899C95.5399 67.6699 96.5199 66.8899 96.7499 65.6599" fill="#A93911"/>
<path d="M17.6101 65.8303C17.5601 64.7303 16.8501 63.7703 16.0901 63.7903C14.8801 63.8603 14.7001 66.1603 15.8301 67.1603C16.7101 67.9403 17.6701 67.2203 17.6101 65.8303Z" fill="#A93911"/>
<path d="M93.58 73.9301C93.83 73.0901 93.67 71.9001 92.54 72.0201C91.01 72.4601 90.54 74.8701 91.55 75.4301C92.24 75.8101 93.24 75.0701 93.58 73.9401" fill="#A93911"/>
<path d="M20.83 74.0796C20.69 73.1296 19.94 72.0995 19.08 72.1295C17.77 72.2695 18.06 74.5096 19.19 75.3696C20.13 76.0796 21.02 75.3696 20.83 74.0796Z" fill="#A93911"/>
<path d="M88.77 81.1699C89.09 80.3599 88.95 79.2699 87.88 79.3499C86.32 79.6899 85.64 81.9999 86.61 82.5599C87.28 82.9399 88.35 82.2599 88.77 81.1699Z" fill="#A93911"/>
<path d="M25.67 81.2801C25.46 80.3601 24.64 79.4001 23.74 79.4501C22.47 79.6401 22.88 81.6501 24.07 82.4801C25.04 83.1501 25.87 82.6201 25.69 81.4401C25.69 81.3901 25.67 81.3301 25.66 81.2801" fill="#A93911"/>
<path d="M82.87 87.1302C83.26 86.2602 83.03 85.3602 82.06 85.4102C80.56 85.6602 79.74 87.6802 80.56 88.3502C81.17 88.8502 82.38 88.2102 82.87 87.1302Z" fill="#A93911"/>
<path d="M31.59 87.2099C31.36 86.3399 30.52 85.4399 29.58 85.4999C28.41 85.7199 28.79 87.4499 29.92 88.2699C30.92 88.9899 31.84 88.4999 31.63 87.3599C31.63 87.3199 31.61 87.2599 31.6 87.2099" fill="#A93911"/>
<path d="M76.46 91.72C76.84 90.91 76.6 90.06 75.65 90.1C74.17 90.27 73.35 92.23 74.19 92.86C74.82 93.33 75.99 92.74 76.46 91.72Z" fill="#A93911"/>
<path d="M38.01 91.7696C37.83 91.0796 37.07 90.0996 36 90.1696C34.79 90.4396 35.24 92.1296 36.43 92.8396C37.44 93.4396 38.29 92.8596 38 91.7696" fill="#A93911"/>
<path d="M69.97 94.9398C70.29 94.1798 70 93.3798 69.06 93.3998C67.67 93.5098 66.93 95.2698 67.7 95.9398C68.33 96.4898 69.54 95.9598 69.96 94.9398" fill="#A93911"/>
<path d="M44.52 94.9604C44.4 94.3004 43.7 93.3603 42.6 93.4503C41.33 93.7803 41.84 95.3704 42.85 95.9704C43.91 96.5904 44.7 95.9204 44.53 94.9604" fill="#A93911"/>
<path d="M63.62 96.83C63.86 96.03 63.35 95.3299 62.53 95.3399C61.3 95.3899 60.55 96.93 61.38 97.7C62.06 98.33 63.31 97.84 63.62 96.83Z" fill="#A93911"/>
<path d="M50.93 96.8297C50.89 96.0897 50.21 95.3297 49.26 95.3697C48 95.5397 48 97.0097 48.98 97.7197C49.23 97.8997 49.46 97.9597 49.59 97.9897C50.35 98.1297 50.96 97.5997 50.93 96.8397" fill="#A93911"/>
<path d="M57.31 97.4402C57.4 96.7702 56.96 96.0302 55.98 95.9902C54.63 96.0602 54.25 97.4502 55.07 98.2202C55.43 98.5602 55.83 98.5802 56 98.5902C56.93 98.5402 57.26 97.8502 57.31 97.4502" fill="#A93911"/>
<path d="M16.42 56.7904C16.33 58.2604 15.23 59.0104 14.45 58.1304C13.56 57.1204 13.86 54.8004 15.17 54.6904C16.11 54.7604 16.47 55.9604 16.42 56.7804" fill="#A93911"/>
<path d="M61.9 26.1301C61.97 25.0801 61.08 23.9501 59.69 24.0101C57.77 24.2701 57.5 26.4501 58.85 27.3901C60.09 28.2601 61.81 27.5501 61.9 26.1301Z" fill="#A93911"/>
<path d="M53.71 25.9801C53.82 24.9001 52.96 23.9901 51.83 24.0001C50.04 24.0501 49.1 26.1801 50.37 27.3001C51.53 28.3301 53.56 27.5301 53.71 25.9801Z" fill="#A93911"/>
<path d="M69.79 28.3404C69.76 27.5304 69.02 26.0804 67.34 26.2004C65.43 26.6304 65.67 28.8104 66.93 29.6704C68.23 30.5504 69.83 29.8104 69.78 28.3404" fill="#A93911"/>
<path d="M45.7 28.2296C45.89 27.2196 45.26 26.1496 44 26.1896C42.12 26.3396 41.31 28.5496 42.35 29.5896C43.39 30.6296 45.4 29.8196 45.7 28.2296Z" fill="#A93911"/>
<path d="M77.09 32.7802C77.02 31.7902 76.12 30.4602 74.65 30.5502C72.85 30.8602 72.92 33.2102 74.36 34.2002C75.68 35.1002 77.21 34.3102 77.09 32.7902" fill="#A93911"/>
<path d="M38.33 32.6902C38.57 31.6102 38.02 30.4902 36.69 30.5502C34.66 30.8302 33.94 33.3802 35.23 34.3002C36.31 35.0702 37.99 34.2002 38.34 32.6802" fill="#A93911"/>
<path d="M83.22 39.2997C83.16 38.1497 82.18 36.8997 80.89 36.9497C79.02 37.1797 79.04 39.7297 80.51 40.7997C81.81 41.7397 83.31 40.9197 83.22 39.2997Z" fill="#A93911"/>
<path d="M32.15 39.2298C32.35 38.2598 31.94 36.8698 30.43 36.9798C28.42 37.3998 27.8399 40.0398 29.1499 40.9498C30.2299 41.6998 31.83 40.7798 32.15 39.2298Z" fill="#A93911"/>
<path d="M87.3699 47.5198C87.3799 46.1898 86.3999 45.0398 85.2699 45.0598C83.5499 45.1698 83.0799 47.8298 84.5599 49.0598C85.7799 50.0798 87.3599 49.2098 87.3699 47.5198Z" fill="#A93911"/>
<path d="M27.98 47.4702C28.16 46.2702 27.49 45.0202 26.21 45.0802C24.18 45.3802 23.73 48.2902 25.14 49.2602C26.23 50.0102 27.74 49.0502 27.98 47.4702Z" fill="#A93911"/>
<path d="M88.8 56.8C88.9 55.69 88.25 54.2 86.79 54.29C84.84 54.66 84.65 57.61 86.09 58.57C86.45 58.81 86.77 58.83 86.96 58.84C88.28 58.76 88.74 57.51 88.8 56.79" fill="#A93911"/>
<path d="M87.27 66.03C87.47 64.82 86.81 63.57 85.5 63.63C83.44 63.93 82.99 66.84 84.42 67.79C85.52 68.53 87.01 67.6 87.27 66.02" fill="#A93911"/>
<path d="M28.1001 66.1805C28.1001 64.9905 27.2401 63.6805 25.9901 63.7105C24.2701 63.8205 23.8501 66.4705 25.3501 67.7005C26.5701 68.7005 28.0901 67.8605 28.0901 66.1805" fill="#A93911"/>
<path d="M83.06 74.1902C83.29 73.2102 82.9 71.8102 81.34 71.9202C79.18 72.3602 78.8701 75.0502 80.0801 75.8702C81.1401 76.6002 82.7 75.7102 83.06 74.1802" fill="#A93911"/>
<path d="M32.36 74.3503C32.3 73.1903 31.33 71.9303 30.02 71.9903C28.17 72.2203 28.24 74.7703 29.73 75.8303C31.01 76.7403 32.44 75.9403 32.36 74.3603" fill="#A93911"/>
<path d="M76.91 80.6603C77.19 79.5703 76.65 78.4403 75.27 78.5003C74.8 78.5603 74.52 78.6803 74.11 78.9903C72.62 80.3103 73.1 82.3203 74.54 82.4903C75.54 82.6103 76.63 81.7603 76.92 80.6503" fill="#A93911"/>
<path d="M38.56 80.81C38.5 79.81 37.62 78.47 36.11 78.56C34.29 78.88 34.43 81.19 35.92 82.19C37.22 83.06 38.65 82.31 38.56 80.81Z" fill="#A93911"/>
<path d="M69.66 85.0699C69.9 84.0499 69.28 82.9699 67.97 83.0099C66.08 83.1599 65.32 85.3599 66.39 86.3999C67.41 87.3799 69.3 86.6199 69.65 85.0799" fill="#A93911"/>
<path d="M45.88 85.2096C45.88 84.2296 45.02 82.9396 43.42 83.0496C41.53 83.4796 41.83 85.6496 43.13 86.4996C44.4 87.3396 45.89 86.6396 45.89 85.1996" fill="#A93911"/>
<path d="M61.88 87.2804C62.03 86.1904 61.19 85.2704 60.03 85.2804C58.31 85.3204 57.39 87.2904 58.54 88.4604C59.66 89.6004 61.65 88.8904 61.88 87.2804Z" fill="#A93911"/>
<path d="M53.78 87.4399C53.9 86.3799 53.01 85.2299 51.55 85.2999C49.71 85.5499 49.41 87.5299 50.67 88.5599C51.87 89.5499 53.62 88.9199 53.78 87.4399Z" fill="#A93911"/>
<path d="M26.54 56.6496C26.51 58.5296 24.73 59.5596 23.57 58.3596C22.23 56.9896 22.98 54.3296 24.71 54.3096C25.74 54.3296 26.56 55.3796 26.54 56.6496Z" fill="#A93911"/>
<path d="M39.87 53.3105C39.82 54.4605 38.54 55.0005 37.78 54.1905C37.08 53.4405 37.5 52.0005 38.67 51.9805C39.44 51.9905 39.89 52.6705 39.86 53.3005" fill="#A93911"/>
<path d="M40.07 65.3195C40.09 66.4095 38.84 66.9495 38.07 66.1795C37.27 65.3895 37.74 64.0395 38.81 64.0195C39.49 64.0195 40.06 64.6095 40.08 65.3195" fill="#A93911"/>
<path d="M46.34 73.1096C46.37 73.9396 45.4 74.3396 44.77 73.7496C44.15 73.1696 44.49 72.1596 45.31 72.1396H45.33C45.87 72.1396 46.32 72.5796 46.34 73.1096Z" fill="#A93911"/>
<path d="M66.64 73.1096C66.57 73.9696 65.47 74.3496 64.95 73.6996C64.45 73.0796 64.93 72.1496 65.75 72.1396C66.29 72.1396 66.69 72.5796 66.64 73.1096Z" fill="#A93911"/>
<path d="M73.8899 53.3102C73.8799 54.4302 72.6199 54.9902 71.8399 54.2202C71.0399 53.4202 71.5599 52.0102 72.6499 51.9902C73.4199 52.0002 73.8899 52.6802 73.8899 53.3102Z" fill="#A93911"/>
<path d="M73.68 65.3195C73.59 66.4395 72.25 66.9695 71.56 66.1595C70.87 65.3395 71.46 64.0395 72.53 64.0195C73.21 64.0195 73.73 64.6095 73.67 65.3195" fill="#A93911"/>
<path d="M60.59 41.0398C60.59 45.2398 55.2 47.2898 52.12 44.2698C49.13 41.3398 51.37 36.3498 55.69 36.2998C58.44 36.3298 60.59 38.4098 60.59 41.0398Z" fill="white"/>
<path d="M59.06 53.3602C59 56.3002 55.25 57.7002 53.17 55.5702C51.12 53.4702 52.66 50.0302 55.66 49.9902C57.61 50.0102 59.1 51.4902 59.06 53.3602Z" fill="white"/>
<path d="M58.71 65.3596C58.63 67.9896 55.18 69.1696 53.36 67.1896C51.65 65.3196 53.05 62.3796 55.66 62.3496C57.42 62.3696 58.76 63.6896 58.71 65.3596Z" fill="white"/>
<path d="M57.8201 76.2704C57.7501 78.1204 55.3801 78.9204 54.0901 77.5304C52.9501 76.3104 53.6701 74.2104 55.6801 74.1904C56.9201 74.2004 57.8601 75.1204 57.8201 76.2704Z" fill="white"/>
<path d="M45.54 41.2002C45.32 44.0702 41.71 45.4502 39.94 43.3402C38.24 41.3102 39.88 37.9802 42.61 37.9502C44.36 37.9702 45.67 39.4302 45.54 41.2002Z" fill="white"/>
<path d="M72.1099 41.2C72.2699 43.95 69.0999 45.37 66.9699 43.51C64.8299 41.64 65.8099 38.16 68.5299 37.96C68.6199 37.96 68.6999 37.96 68.7599 37.96C70.7399 37.98 72.0199 39.63 72.1099 41.21" fill="white"/>
<defs>
<radialGradient id="paint0_radial_1766_1195" cx="0" cy="0" r="1" gradientUnits="userSpaceOnUse" gradientTransform="translate(15.3873 41.0969) scale(85.81)">
<stop stop-color="#BA2604"/>
<stop offset="0.2" stop-color="#701703"/>
<stop offset="0.42" stop-color="#240701"/>
<stop offset="1"/>
</radialGradient>
</defs>
</svg>
